<svg xmlns="http://www.w3.org/2000/svg" width="160" height="160"><path fill="none" pointer-events="none" d="M0 0h160v160H0z"/><path class="st0" d="M49.034 74.83c0 .111 0 .277-.056.387-.055.552 0 1.104.056 1.6.165.939.055 1.215.11 1.27.276.276-.11-.331.386-.276 4.25.607 7.34 4.415 7.174 8.719 0 1.49.11 3.366.276 5.408.166 2.428.386 4.856.662 7.063.22 2.042.331 3.09.442 3.2.11.222.276.111 1.103.718 1.104.883 4.746 3.09 8.168 5.188 5.407 3.31 10.54 6.456 11.809 9.491.496 1.214.717 2.539.607 3.753 0 3.035-.497 6.18-1.71 8.829-1.656 3.642-4.305 6.346-8.223 7.284-.11.055-.276.11-.387.166 1.6.496 3.09 1.434 4.194 2.924l.11.11c.056.056.056.111.111.111l.11.11c.11.11.166.221.276.387l.056.055.11.11.166.166.11.11.055.055.11.166.056.055.055.055.055.056.166.165.165.11.055.056h.055l.166.165.11.055.056.056c.055.055.11.11.165.11l.11.055.166.11.055.056.166.11.11.055.055.055.056.056.11.055.11.055c.11.055.221.11.276.166l.22.11c.056.055.111.055.166.11l.11.055c.056.056.166.056.222.11l.165.056c.22.11 0 0 .166.055l.11.055c.11.056.055 0 0 0 .497.166-.22-.055.11.056l.166.055c.055 0 0 0 .165.055.056 0 .166.055.221.055.055 0 .11.055.166.055.607.166.22.055 0 0h.055l.11.055h.607c.056 0 .11 0 .166.056.22 0 .276.055.276.055h.22c.387.055-.165 0 .11 0v.055c3.533.883 6.016 4.028 6.292 7.67h36.31c-1.93-6.566-4.47-7.118-10.098-8.387-3.642-.773-8.002-1.766-13.52-3.477-1.655.386-3.477.22-5.187-.552-.166-.055-.331-.165-.442-.22l-.662-.332c-1.82-.883-3.476-1.71-4.8-2.593-6.788-2.76-7.175-10.871-7.34-16.059a8.468 8.468 0 0 1 2.152-6.07c1.876-2.152 6.07-4.635 10.43-7.229 3.035-1.82 6.18-3.697 7.56-4.8.496-.387.717-.497.717-.553.166-.33.331-1.38.552-3.145.331-2.98.497-5.74.662-8.498.11-1.711.22-3.422.276-4.525.22-3.367 2.373-6.18 5.242-7.34.221-.11.497-.22.773-.33l.166-.056c.496-.166.607-.22 1.269-.386.055-.276.11-.663.22-1.16.11-.44.11-1.103 0-1.82-.055-.276.056-.221 0-.331-1.103-1.766-1.49-3.808-1.269-5.74.221-2.538.607-4.8 1.049-7.118.441-2.649.938-5.353 1.103-7.34.276-3.09.552-4.745.718-6.015.11-.827.386-.22.276-.772-.166-.938-.276.386-1.325-.883l-.551-.717a8.543 8.543 0 0 1-1.822-7.174c-1.324-2.097-3.2-4.139-7.118-5.629a1.96 1.96 0 0 1-.497-.22l-7.56-3.477a8.03 8.03 0 0 1-3.532-3.09l-.386-.056c-1.159 0-2.373-.22-3.587-.662-.276-.11-.497-.165-.772-.276-1.27-.607-2.318-1.435-3.146-2.483-1.27-.11-2.318-.11-2.925-.166-1.71 0-3.2.056-4.69.276-1.27.221-2.428.552-3.698 1.049-.607.22-1.214.828-1.82 1.435-1.16 1.103-2.373 2.262-4.47 3.531a8.035 8.035 0 0 1-4.415 1.16c-2.815-.056-4.636.054-5.794.496-.552.22-1.16.717-1.877 1.6-.938 1.159-.938 1.435-.993 1.656-.166 1.38-.331 2.538-1.27 4.36-.606 1.103-1.158 1.93-1.71 2.593-.055 2.814-1.048 4.304-2.207 6.07-.055.055-.055.11.772 3.697.497 2.152.607 2.649.773 3.146.993 3.862 2.207 8.774 2.594 12.36.993 3.367.055 6.623-2.097 8.775zm11.643 65.67c-1.159.33-2.317.661-3.531.993-1.435.386-2.925.827-5.133 1.38-1.324.33-.11 0-1.6.385-3.807.939-10.098 2.484-10.816 3.587-.993 1.435-1.82 3.477-2.428 5.74h24.612c-.055-.11-.166-.166-.22-.276-.221-.221-.387-.442-.608-.663l-.11-.11-.055-.055a3.023 3.023 0 0 1-.331-.442l-.11-.11c-2.208-3.256-1.987-7.505.33-10.43zm17.328 3.697zm0 0c.055.055.055 0 0 0zm.331.11zm0 0c-.386-.11-.166-.055 0 0zm1.656.441zm-2.373 16.831zm2.704-16.775h.331-.331zm.33.055c.111 0 .111 0 0 0 .111 0 .111 0 0 0z" fill-rule="evenodd" clip-rule="evenodd" fill="#e6e7e8"/><path class="st1" d="M45.833 67.933c-2.594.331-3.532 1.104-4.415 3.366-.772 2.042-.938 4.746-.496 7.064.938 5.187 2.704 7.229 7.56 7.89.055 4.416.441 9.437.938 13.742.662 5.96 1.159 6.898 4.69 9.712 2.98 2.318 17.052 10.32 17.383 11.202.055 4.084-1.048 8.388-4.635 8.443.772.552-14.237 5.077-13.52 5.629 2.98 2.207 21.577 13.63 26.212 13.796 3.697.11 22.956-5.077 25.77-10.982 1.104-2.317-13.354-7.615-12.636-8.443-2.815-.386-3.035-5.629-3.146-8.774 1.877-2.097 12.858-7.836 16.886-10.926 3.201-2.484 3.863-4.029 4.525-9.492.552-4.525.663-8.94.994-13.465l.552-.276c.386-.165.386-.165.827-.275 3.642-.939 5.132-2.704 6.126-7.726.552-2.87.22-7.34-1.932-9.381-1.048-.994-2.207-.883-2.924-1.214.882-44.533-71.629-46.079-68.76.11z" fill-rule="evenodd" clip-rule="evenodd" fill="#fcc375"/><path class="st1" d="M43.24 68.706c-.828.496-1.325 1.324-1.822 2.593-.772 2.042-.938 4.746-.496 7.064.938 5.187 2.704 7.229 7.56 7.89.055 4.416.441 9.437.938 13.742.662 5.96 1.159 6.898 4.69 9.712 2.98 2.318 17.052 10.32 17.383 11.202.055 4.084-1.048 8.388-4.635 8.443.276.22-1.545.938-3.918 1.821-4.304.938-8.554 2.263-12.968 3.422-4.636 1.214-14.403 3.255-17.218 7.394-3.31 4.912-5.076 12.692-5.242 19.039l52.755.055h53.197c-4.58-29.8-8.498-20.253-35.759-30.02.387 1.27.828-.11.221 1.27-2.925-1.436-5.573-2.705-5.242-3.036-2.815-.386-3.035-5.629-3.146-8.774 1.877-2.097 12.858-7.836 16.886-10.926 3.201-2.484 3.863-4.029 4.525-9.492.552-4.525.663-8.94.994-13.465l.552-.276c.386-.165.386-.165.827-.276 3.642-.938 5.132-2.704 6.126-7.725.496-2.484.276-6.126-1.16-8.443.387-4.14 1.712-9.768 2.208-14.734.993-10.54 2.539-8.168-2.814-14.68h2.483c-3.421-4.8-4.249-11.146-14.844-15.23L97.76 21.8l5.849 1.269c-3.863-3.366-7.505-4.36-13.851-5.408-.938-1.932-.497 1.27.276-.607.552-1.27 1.104.662.165-.773-1.158-1.71-7.946-1.931-9.988-1.931-4.47-.055-7.78.33-11.588 1.931-3.532 1.435-4.415 3.698-7.45 5.519-7.836-.166-10.871.993-14.293 5.187-3.586 4.415-2.483 6.07-3.2 7.394-1.325 2.484-3.2 2.153-2.76 5.408.497 3.477-3.697 1.932-1.158 12.913.883 3.918 3.2 12.03 3.256 15.507.055.055.11.22.22.497zm23.783 77.036c.056.11.11.165.221.276a1.208 1.208 0 0 0-.22-.276zm.332.441c.055.055.11.166.165.22a.76.76 0 0 0-.165-.22zm.662.773c.055.055.11.165.22.22-.055-.055-.165-.11-.22-.22zm.33.386c.056.11.166.166.222.276-.056-.055-.11-.166-.221-.276zm.387.441l.276.276-.276-.276zm.386.387c.11.11.166.165.276.22-.11-.055-.165-.165-.276-.22zm.331.33l.276.277-.276-.276zm.442.387c.11.11.22.166.331.276-.166-.11-.22-.165-.331-.276zm.386.386c.11.11.221.166.331.276-.11-.11-.22-.22-.33-.276zm.442.332c.11.11.22.165.33.275-.11-.11-.22-.165-.33-.275zm.441.33c.11.111.22.166.386.277-.165-.11-.275-.221-.386-.276zm.442.332c.11.11.276.165.386.276-.166-.11-.276-.221-.386-.276zm.441.33c.11.111.276.166.386.277-.11-.11-.22-.221-.386-.276zm.497.277c.11.11.276.165.386.22-.11-.055-.276-.11-.386-.22zm.441.276c.11.055.276.165.387.22-.11-.055-.221-.11-.387-.22zm.497.276c.165.055.276.165.441.22-.165-.055-.276-.165-.441-.22zm.552.276c.165.055.276.165.441.22-.165-.11-.33-.165-.441-.22zm.496.22c.166.055.331.11.497.221a1.96 1.96 0 0 1-.497-.22zm.552.221l.497.166c-.22 0-.331-.056-.497-.166zm.497.22l.496.166-.496-.165zm.607.221l.497.166c-.221-.11-.332-.11-.497-.166zm.552.166c.165.055.33.11.496.11-.165-.055-.33-.055-.496-.11zm.607.11zm.552.166c.165.055.386.055.551.11-.22-.055-.386-.11-.551-.11zm.607.11c.165.055.33.055.551.055-.165 0-.386-.055-.551-.055zm.662.11c.165 0 .386.056.552.056-.221-.055-.387-.055-.552-.055zm.607.056c.22 0 .386.055.607.055-.22-.055-.386-.055-.607-.055z" fill-rule="evenodd" clip-rule="evenodd" fill="#fcc375"/><path class="st3" d="M89.428 42.493c7.229 0 13.85 2.428 18.431 6.733 3.697 3.532 1.214 7.118.773 12.968-.221 2.87 1.159 3.31 1.876 5.739 1.324 4.525.938 8.774 1.048 13.575 3.974-.772 4.801-7.063 6.733-10.76.276-4.195 1.766-10.21 2.262-15.562.994-10.54 2.539-8.168-2.814-14.68h2.483c-3.421-4.8-4.249-11.146-14.844-15.23l-7.56-3.476 5.85 1.269c-3.864-3.366-7.506-4.36-13.852-5.408-.938-1.932-.496 1.27.276-.607.552-1.27 1.104.662.166-.773-1.16-1.71-7.947-1.931-9.989-1.931-4.47-.055-7.78.33-11.588 1.931-3.532 1.435-4.47 3.698-7.45 5.519-7.891-.166-10.871.993-14.292 5.187-3.587 4.415-2.484 6.07-3.201 7.394-1.324 2.484-3.2 2.153-2.76 5.408.497 3.477-3.696 1.932-1.158 12.913.883 3.918 3.2 12.03 3.256 15.507.22.331 3.09 9.105 5.85 13.354l.33-1.103c.883-3.863.552-10.32 1.711-12.968 1.435-3.477 2.318-2.925 1.435-7.45-.442-2.263-1.435-5.905-.718-8.278 2.428-8.222 20.198-10.43 29.248-9.381l8.498.11z" fill-rule="evenodd" clip-rule="evenodd" fill="#231f20"/><path class="st4" d="M43.46 47.129c-.883-.497 2.925-20.197 25.936-22.625-.386-.166-21.852 8.222-25.936 22.625z" fill-rule="evenodd" clip-rule="evenodd" fill="#fff"/><path class="st14" d="M27.567 161.028l52.756.055h53.196c-4.58-29.8-8.498-20.253-35.758-30.02.441 1.38.938-.386.055 1.655 1.269 3.532-2.925 11.589-4.912 13.907-3.586 4.083-5.96 5.242-12.526 6.732-13.851-.773-19.204-17.438-17.052-20.86-.772-.827-.662.332-.11-1.379-4.415.938-8.72 2.318-13.244 3.477-4.636 1.214-14.403 3.255-17.218 7.394-3.255 4.912-5.076 12.692-5.187 19.039z" fill-rule="evenodd" clip-rule="evenodd" fill="#4e4f51"/><path class="st7" d="M80.378 153.357c6.567-1.49 8.94-2.649 12.526-6.732 1.987-2.263 6.181-10.375 4.912-13.907-2.097 4.47-3.973 6.512-6.953 9.16-1.932 1.656-7.064 4.967-10.375 4.747-7.394-.552-15.175-8.388-17.107-14.183-2.262 3.477 3.146 20.142 16.997 20.915z" fill-rule="evenodd" clip-rule="evenodd" fill="#fff100"/><path class="st4" d="M64.264 147.452c-.33.276 2.87 8.112 12.582 7.119-.165.11-9.712-1.545-12.582-7.119z" fill-rule="evenodd" clip-rule="evenodd" fill="#fff"/></svg>