<svg xmlns="http://www.w3.org/2000/svg" width="160" height="160"><path fill="none" pointer-events="none" d="M0 0h160v160H0z"/><path class="st0" d="M46.8 78.555c-.056.055-.056.11-.111.166-.055.165-.055.386-.11.717-.056.607 0 1.159.055 1.656.055.165.11.496.22.938.056.165.11.386.166.607.331.993.497 2.042.497 3.035.22 4.028.883 8.001 2.152 11.754 1.27 3.642 3.09 6.953 5.684 9.767a17.64 17.64 0 0 0 1.766 1.711c.551.442 1.103.883 1.82 1.325.387.275.884.496 1.325.662.717.33 1.214.496 1.545.607.662.22 1.325.552 1.876.883l.939.552 1.103.662a8.554 8.554 0 0 1 3.366 3.642c.442 0 .828 0 1.27.055 1.49.22 2.814.717 3.918 1.545.607.386 1.103.718 1.38.938 1.544 1.16 2.648 2.539 3.31 4.084.552 1.38.773 2.814.663 4.194-.056 3.366-.663 6.898-2.208 9.822-2.152 4.084-5.573 6.843-10.76 7.23-2.153.165-4.14-.442-5.74-1.6-.662 2.096-2.152 3.917-4.194 5.076l-.993.497c-1.27.607-2.373 1.269-3.145 1.986-.221.221-.332.331-.332.387a4.2 4.2 0 0 1-.165 1.158c3.035.166 6.015.221 9.05.276 6.843.11 13.796 0 21.025-.276 3.587-.11 17.217-.882 27.592-1.82l1.71-.166c-.496-.993-.993-1.821-1.38-2.483l-.937-.221c-.166-.055-.276-.055-.442-.11-.993-.276-1.82-.552-2.759-.828-.497-.166-1.048-.331-1.71-.552-4.415-1.38-6.954-5.794-6.126-10.209l.055-.276c-.772.773-1.71 1.38-2.814 1.821-3.642 1.545-7.781.442-10.21-2.428-.717-.773-1.379-1.49-1.82-2.207-1.214-1.766-1.932-3.698-2.042-5.795a8.733 8.733 0 0 1 2.428-6.456l.055-.055a3.59 3.59 0 0 1 .497-.442c1.71-1.6 3.918-2.373 6.125-2.373.387-.827.828-1.6 1.49-2.317a9.955 9.955 0 0 1 2.208-1.821l.772-.442c3.256-1.931 6.622-3.863 8.167-5.022.387-.275.662-.496.828-.662a8.839 8.839 0 0 1 1.766-2.483c2.097-2.373 3.642-5.353 4.8-8.609 1.325-3.807 2.098-8.001 2.484-12.25a7.162 7.162 0 0 1 .386-1.821c.11-.276.166-.497.166-.607.166-.607.22-.883.22-.883.056-.331.111-.718.056-1.214 0-.387-.055-.773-.166-1.104-.22-.883-.33-1.766-.276-2.649 0-1.876-.22-5.187-.607-8.553-.33-2.87-.717-5.574-1.103-7.009-.662-2.428-1.16-3.752-1.821-5.628l-.387-.994a6.423 6.423 0 0 0-.33-.827 26.31 26.31 0 0 0-.553-.994l-3.586-5.463c-.332-.496-.939-1.103-1.656-1.71-1.159-.994-2.483-1.932-3.642-2.594-1.104-.331-2.373-.938-5.408-3.2-.055 0-1.104-.442-1.987-.773-.386-.166-.772-.276-1.159-.442-2.483-.993-6.677-1.38-11.147-1.159-4.58.221-8.994.994-11.533 2.263-1.38.662-2.262 1.048-3.035 1.324-.717.276-1.214.497-2.097 1.16-2.097 1.544-2.704 1.986-3.09 2.317-.442.33-.718.552-.883.662-.276.331-.773.938-2.539 2.814-.22.276-.441.442-.607.607-.11.166-.165.331-.276.552-3.531 6.236-6.07 10.816-7.173 18.542a97.122 97.122 0 0 0-.497 4.139c-.166 1.269-.276 2.648-.386 4.138a9.219 9.219 0 0 1-.994 3.256zm63.736 69.255c-.22-.11-.33-.22 0 0zm0 0c.442.276.387.276.221.166l-.22-.166zM59.105 44.341c-.11.11-.165.166 0 0-.055.056 0 .056 0 0z" fill-rule="evenodd" clip-rule="evenodd" fill="#e6e7e8"/><path class="st1" d="M43.212 71.823c-2.814.33-3.807 1.159-4.745 3.532-.828 2.152-.994 4.966-.552 7.394.993 5.463 2.87 7.56 8.112 8.278.055 4.635.496 9.933.993 14.403.717 6.29 1.214 7.229 5.077 10.153 3.2 2.428 18.32 10.816 18.707 11.754.11 4.25-1.104 8.83-4.966 8.885 1.82 1.38-22.019 2.704-22.46 14.9-.166 5.352 32.724 3.42 36.2 3.531 5.574.166 27.978-11.092 30.793-14.182-3.035-.441-20.032-10.154-20.142-13.465 1.986-2.207 13.796-8.222 18.1-11.478 3.421-2.593 4.194-4.249 4.856-9.933.552-4.69.717-9.381 1.049-14.127l.607-.276c.441-.165.441-.165.882-.276 3.919-.993 5.519-2.814 6.567-8.056.607-3.036.221-7.726-2.097-9.823-1.103-1.049-2.373-.938-3.145-1.27 1.048-46.795-76.926-48.45-73.836.056z" fill-rule="evenodd" clip-rule="evenodd" fill="#fcc375"/><path class="st18" d="M38.687 85.564c.497 10.153 3.09 20.031 10.264 27.702 1.6 1.71 3.201 3.145 5.353 4.525 1.711 1.048 3.422 1.71 4.801 2.152.718.441 1.435.828 2.152 1.269-.717.773-2.317 1.821-3.531 2.925-5.574 4.966-6.678 7.615-5.63 16.003.222.166.387.331.553.607-4.636 2.042-8.774 5.132-9.105 9.988-.994-.11-.939.662-1.27 1.766-.386 1.159-1.103 3.035-1.655 4.746h82.775c-.497-4.47-3.752-11.147-5.684-14.072-2.373-3.587-1.71-2.87-6.29-3.973-.939-.22-2.705-.828-4.36-1.38.22-1.159.496-2.317.386-4.028-.11-1.987-.938-4.25-1.821-5.518-.717-1.104-2.483-3.036-3.2-3.808-.497-.497-1.215-1.214-1.822-1.71-.552-.442-1.38-.829-1.931-1.325 3.697-2.152 7.67-4.47 9.767-6.07 1.766-1.325 2.815-2.428 3.477-3.918 6.236-6.788 8.94-16.666 9.878-26.378.22-.718.441-1.545.607-2.428.386-1.821.386-4.194-.166-6.291v-.22c.055-4.195-.938-14.128-1.986-18.101-.828-3.035-1.435-4.635-2.429-7.395-.441-1.214-.993-2.262-1.6-3.31l-3.863-5.905c-1.876-2.76-5.408-5.353-8.112-7.009-2.87-1.765-.607.276-4.635-2.704-1.159-.827-3.808-1.765-5.077-2.317-7.45-3.035-22.68-2.263-29.965 1.324-3.035 1.49-3.807 1.325-6.511 3.366-7.064 5.243-3.477 2.263-7.781 6.953-.331.332-.773.607-1.214 1.214-.662.828-.442.718-.883 1.6-3.973 7.12-6.898 12.252-8.222 21.743-.387 2.87-.718 5.794-.939 8.83-.11.275-.275.551-.386.882-.828 2.153-.993 4.967-.552 7.395a8.804 8.804 0 0 0 .607 2.87zM90.34 126.84c.497.828 1.159 1.435 1.656 2.649-1.049-.994-1.711-1.877-1.766-2.539.055-.055.055-.11.11-.11zm-24.17 7.67c.055-3.476.772-4.69 2.373-6.842.055-.056.11-.166.165-.221.166-.276.276-.331.276-.387 0-.11.055-.22.11-.386.056-.165.11-.386.11-.607.939.607 1.49 1.049 1.601 1.214.055 4.139-1.048 8.609-4.69 8.885.055-.552.055-1.104.055-1.656z" fill="#fcc375"/><path class="st19" d="M125.491 162.49c-.993-5.078-6.125-16.61-7.946-19.315-2.373-3.587-1.711-2.87-6.291-3.973-1.821-.442-6.898-2.428-8.057-2.097-1.435.607-7.891 4.746-12.416 6.898-15.01 7.118-30.572 9.547-47.348 6.732-1.048-.11-.993.662-1.324 1.766-.331.938-2.152 6.677-3.256 9.988h86.638z" fill-rule="evenodd" clip-rule="evenodd" fill="#d81b57"/><path class="st8" d="M52.042 140.085c1.6 1.048 1.214 6.236 1.159 8.277 3.366-.827 3.145-3.587 5.076-4.69 2.153 3.09-.22 7.174-1.269 8.995 3.698-.221 6.788-4.912 7.726-5.574 2.097-3.863 1.38-7.505 1.49-12.637.055-3.476.772-4.69 2.373-6.843.055-.055.11-.165.165-.22.663-.994-.055.551.387-.718.386-1.103.11-2.649-.166-3.752-2.373-1.16-7.615-5.188-9.216-7.119-1.214-1.435-2.207-2.98-3.255-4.8-.994-1.712-1.656-3.864-2.539-5.906-2.097-4.8-4.58-18.652-2.704-24.998.497-1.766.662-1.545 1.435-2.814 3.421-.331 6.015.938 13.244-.055 8.719-1.159 15.562-4.194 21.687-10.044 2.042-1.986 2.428-2.87 3.973-4.745 1.104-1.325-.11-.442 1.325-1.214-.276 2.317-1.104 2.98-1.932 4.745-.772 1.546-1.876 3.146-2.207 4.415 2.704-.331 6.401-3.752 8.057-5.573 1.103-1.215 1.876-1.932 3.035-3.643.662-.938.828-1.214 1.38-2.152.11-.165.662-1.103.662-1.103l1.103-.939c1.214.663.773.442 1.38 1.711.276.607.662 1.159.938 1.766.497.993 1.214 2.925 1.71 4.25.994 2.538 2.208 6.345 2.65 9.325 1.71 11.754 3.145 18.873-2.98 29.8-1.435 2.538-2.76 4.855-4.801 7.063-2.65 2.87-5.077 6.456-8.664 9.27-1.049.828-2.539 1.656-3.477 2.429-.33 6.18 2.815 3.697 3.09 10.76.056 2.208-.165 4.746-.165 7.064.055 3.863.441 3.2 1.49 5.96 2.373 2.152 3.808 5.242 7.67 5.573-.33-.828-3.366-4.911-1.324-8.719 1.766.276.442.387 2.318 2.594.883 1.048 1.6 1.655 2.924 1.876 0-2.152-.827-6.456 1.049-7.726.055-2.262.828-3.586.662-6.235-.11-1.987-.938-4.25-1.82-5.519-.718-1.103-2.484-3.035-3.202-3.807-.496-.497-1.214-1.214-1.82-1.711-.663-.552-1.766-.993-2.208-1.656.497-1.214 2.98-1.434 6.346-3.531 3.2-1.987 3.09-2.263 5.463-4.36 9.713-8.719 12.03-24.17 12.14-37.083.056-4.194-.937-14.127-1.986-18.1-.828-3.035-1.435-4.636-2.428-7.395-.441-1.214-.993-2.262-1.6-3.31l-3.863-5.905c-1.876-2.76-5.408-5.353-8.112-7.009-2.87-1.766-.607.276-4.636-2.704-1.158-.827-3.807-1.766-5.076-2.317-7.45-3.036-22.68-2.263-29.965 1.324-3.035 1.49-3.808 1.324-6.512 3.366-7.063 5.243-3.476 2.263-7.78 6.953-.332.331-.773.607-1.215 1.214-.662.828-.441.718-.883 1.6-3.973 7.12-6.897 12.251-8.222 21.743-2.152 15.838-2.814 34.876 9.105 47.623 1.6 1.71 3.201 3.146 5.353 4.525 2.87 1.821 5.684 2.373 6.953 2.925.056.055.166.055.276.11-.441.773-2.373 1.987-3.863 3.311-5.85 5.022-6.953 7.67-5.904 16.059z" fill-rule="evenodd" clip-rule="evenodd" fill="#3c210e"/><path class="st19" d="M42.385 73.092c.441-1.876 4.304-8.167 5.628-10.099 14.9-21.797 52.756-24.556 68.428 4.14.386.717.883 1.82 1.27 2.758.275.607.33.663.55 1.27l.774 1.655c1.765-2.98-1.822-36.255-38.463-34.876-11.423.442-20.308 4.139-26.875 10.044-4.856 4.36-11.699 16.058-11.312 25.108z" fill-rule="evenodd" clip-rule="evenodd" fill="#d81b57"/><path class="st4" d="M45.861 56.647c-.938-.551 3.146-21.19 27.868-23.673-.442-.221-23.508 8.608-27.868 23.673zm36.973 94.419c.331.387-3.09 7.781-13.52 4.194.166.166 10.43.938 13.52-4.194z" fill-rule="evenodd" clip-rule="evenodd" fill="#fff"/></svg>